<svg xmlns="http://www.w3.org/2000/svg" width="36.121" height="36.121" viewBox="0 0 36.121 36.121">
  <path id="spotify_1_" data-name="spotify (1)" d="M18.06,0a18.06,18.06,0,1,0,18.06,18.06A18.06,18.06,0,0,0,18.06,0Zm7.86,26.211a1.234,1.234,0,0,1-1.689.443,18.18,18.18,0,0,0-9.569-2.123,23.739,23.739,0,0,0-4.964.655A1.235,1.235,0,0,1,9.043,22.8a25.715,25.715,0,0,1,5.474-.74,24.11,24.11,0,0,1,5.274.382,17.8,17.8,0,0,1,5.686,2.076A1.235,1.235,0,0,1,25.921,26.211Zm2.3-4.769a1.462,1.462,0,0,1-2,.525,21.535,21.535,0,0,0-11.335-2.515A28.124,28.124,0,0,0,9,20.228a1.463,1.463,0,0,1-.776-2.821,30.454,30.454,0,0,1,6.484-.877,28.565,28.565,0,0,1,6.247.452,21.087,21.087,0,0,1,6.735,2.459A1.463,1.463,0,0,1,28.217,21.442Zm1.411-4.336a1.786,1.786,0,0,1-.9-.245c-9.14-5.341-21-2.166-21.114-2.133a1.794,1.794,0,1,1-.953-3.46,37.351,37.351,0,0,1,7.954-1.076,35.044,35.044,0,0,1,7.663.555,25.862,25.862,0,0,1,8.262,3.016,1.795,1.795,0,0,1-.907,3.344Z" fill="#fff"/>
</svg>
